{"title":"Michael Jackson - Slave To The Rhythm (3 versions, Original Leak","uid":8826033,"size":62583968,"categoryP":"audio","categoryS":"music","magnet":"?xt=urn:btih:661dd3f62132047a315a8675441430e1de1ad1d5&amp;dn=Michael+Jackson+-+Slave+To+The+Rhythm+%283+versions%2C+Original+Leak&amp;tr=udp%3A%2F%2Ftracker.openbittorrent.com%3A80&amp;tr=udp%3A%2F%2Fopen.demonii.com%3A1337&amp;tr=udp%3A%2F%2Ftracker.coppersurfer.tk%3A6969&amp;tr=udp%3A%2F%2Fexodus.desync.com%3A6969","seeders":0,"leechers":2,"uploader":"Dudex92","files":-1,"time":1376849762,"description":"Slave To The Rhythm (First Leak 2010).mp3\n\nFormat                                   : MPEG Audio\nFile size                                : 4.10 MiB\nDuration                                 : 4mn 28s\nOverall bit rate mode                    : Constant\nOverall bit rate                         : 128 Kbps\nTrack name                               : Slave To The Rhythm\nPerformer                                : Michael Jackson\nGenre                                    : Soul and R&amp;B\n\nAudio\nFormat                                   : MPEG Audio\nFormat version                           : Version 1\nFormat profile                           : Layer 3\nMode                                     : Joint stereo\nMode extension                           : MS Stereo\nDuration                                 : 4mn 29s\nBit rate mode                            : Constant\nBit rate                                 : 128 Kbps\nChannel(s)                               : 2 channels\nSampling rate                            : 44.1 KHz\nCompression mode                         : Lossy\nStream size                              : 4.10 MiB (100%)\n\n\n\nSlave 2 The Rhythm (prod. Max Methods).mp3\n\nFormat                                   : MPEG Audio\nFile size                                : 9.85 MiB\nDuration                                 : 4mn 18s\nOverall bit rate mode                    : Constant\nOverall bit rate                         : 320 Kbps\nTrack name                               : Slave 2 The Rhythm (prod. Max Methods)\nPerformer                                : Michael Jackson Feat. Justin Bieber\nComposer                                 : Max Methods\nWriting library                          : Logic Pro 9.1.8\n\nAudio\nFormat                                   : MPEG Audio\nFormat version                           : Version 1\nFormat profile                           : Layer 3\nMode                                     : Joint stereo\nMode extension                           : MS Stereo\nDuration                                 : 4mn 18s\nBit rate mode                            : Constant\nBit rate                                 : 320 Kbps\nChannel(s)                               : 2 channels\nSampling rate                            : 44.1 KHz\nCompression mode                         : Lossy\nStream size                              : 9.84 MiB (100%)\n\n\nSlave To The Rhythm-Main_Mix_V5 (2013 Leak).aif\n\nFormat                                   : AIFF\nFormat/Info                              : Apple/SGI\nFile size                                : 45.7 MiB\nDuration                                 : 4mn 31s\nOverall bit rate mode                    : Constant\nOverall bit rate                         : 1 411 Kbps\n\nAudio\nFormat                                   : PCM\nFormat settings, Endianness              : Big\nDuration                                 : 4mn 31s\nBit rate mode                            : Constant\nBit rate                                 : 1 411.2 Kbps\nChannel(s)                               : 2 channels\nSampling rate                            : 44.1 KHz\nBit depth                                : 16 bits\nStream size                              : 45.7 MiB (100%)\n","torrent":{"xt":"urn:btih:661dd3f62132047a315a8675441430e1de1ad1d5","amp;dn":"Michael+Jackson+-+Slave+To+The+Rhythm+%283+versions%2C+Original+Leak","amp;tr":["udp%3A%2F%2Ftracker.openbittorrent.com%3A80","udp%3A%2F%2Fopen.demonii.com%3A1337","udp%3A%2F%2Ftracker.coppersurfer.tk%3A6969","udp%3A%2F%2Fexodus.desync.com%3A6969"],"infoHash":"661dd3f62132047a315a8675441430e1de1ad1d5","infoHashBuffer":{"type":"Buffer","data":[102,29,211,246,33,50,4,122,49,90,134,117,68,20,48,225,222,26,209,213]},"announce":[],"urlList":[]}}